[img]http://img338.imageshack.us/img338/3568/paperboyf.jpg[/img]
[code]
The.Paperboy.2012.480p.BDRip.XViD.AC3-26k
 
http://www.imdb.com/title/tt1496422/

Plot:
A reporter returns to his Florida hometown to investigate a case involving a death row inmate.

Sources - Audio-BDFILES....Thanks :P
          VIDEO-BDFILES.....Thanks :P
          Subs-ENG.SRT IN TORRENT FILE....
Video
ID                                       : 0
Format                                   : MPEG-4 Visual
Format profile                           : Advanced Simple@L5
Format settings, BVOP                    : 2
Format settings, QPel                    : No
Format settings, GMC                     : No warppoints
Format settings, Matrix                  : Default (H.263)
Codec ID                                 : XVID
Codec ID/Hint                            : XviD
Duration                                 : 1h 46mn
Bit rate                                 : 2 000 Kbps
Width                                    : 720 pixels
Height                                   : 304 pixels
Display aspect ratio                     : 2.35:1
Frame rate                               : 23.976 fps
Color space                              : YUV
Chroma subsampling                       : 4:2:0
Bit depth                                : 8 bits
Scan type                                : Progressive
Compression mode                         : Lossy
Bits/(Pixel*Frame)                       : 0.381
Stream size                              : 1.49 GiB (79%)
Writing library                          : XviD 1.2.1 (UTC 2008-12-04)

Audio
ID                                       : 1
Format                                   : AC-3
Format/Info                              : Audio Coding 3
Mode extension                           : CM (complete main)
Format settings, Endianness              : Big
Codec ID                                 : 2000
Duration                                 : 1h 46mn
Bit rate mode                            : Constant
Bit rate                                 : 512 Kbps
Channel(s)                               : 6 channels
Channel positions                        : Front: L C R, Side: L R, LFE
Sampling rate                            : 48.0 KHz
Bit depth                                : 16 bits
Compression mode                         : Lossy
Stream size                              : 391 MiB (20%)
Alignment                                : Aligned on interleaves
Interleave, duration                     : 64 ms (1.53 video frames)
Interleave, preload duration             : 192 ms
Title                                    : 512

Notes -
MADE A AVS SCRIPT OF BDFILES AND HERE IS THE OUTCOME ENJOY...

[/code]

Screens:
[img]http://imageshack.us/a/img197/9339/64694937.png[/img]
[img]http://imageshack.us/a/img12/5166/60073373.png[/img]
[img]http://imageshack.us/a/img688/9191/58063905.png[/img]
[img]http://imageshack.us/a/img849/4830/48563249.png[/img]
[img]http://imageshack.us/a/img20/2675/47367435.png[/img]

Greetz:
Silent Hill-HD|CM8|RX|VISION|HDSCENE|xTriLL|DTRG|CRYS|BIDA|RX|REFILL|INSPiRAL|AXED|HOPE|Anonymous|NOIR|Blackjesus|Gabroo 

Punjab Deh|UNiQUE|DQ1|RESiSTANCE|HS||LEGION|STN|BOBBYBLUE|LIFT

To all the people who have helped me  you know who you are

Anything to offer email us @: 26k@hushmail.me
&lt;&lt;bullying has to be stopped now!&gt;&gt;